<?xml version="1.0" encoding="UTF-8" ?>
<!DOCTYPE svg PUBLIC "-//W3C//DTD SVG 1.1//EN" "http://www.w3.org/Graphics/SVG/1.1/DTD/svg11.dtd">
<svg width="775pt" height="300pt" viewBox="0 0 775 300" version="1.1" xmlns="http://www.w3.org/2000/svg">
<g id="#169d81ff">
<path fill="#169d81" opacity="1.00" d=" M 81.52 0.00 L 85.15 0.00 C 95.80 0.79 104.92 10.25 104.96 20.98 C 105.56 32.02 96.29 42.50 85.20 43.03 C 75.12 44.24 64.97 37.24 62.41 27.45 C 61.16 21.61 61.55 15.08 64.97 10.01 C 68.52 4.30 74.86 0.62 81.52 0.00 Z" />
</g>
<g id="#82519cff">
<path fill="#82519c" opacity="1.00" d=" M 37.39 30.66 C 44.22 29.32 51.61 31.53 56.57 36.41 C 61.53 41.15 63.94 48.35 62.87 55.12 C 61.82 62.45 56.69 69.02 49.83 71.81 C 42.96 74.74 34.62 73.79 28.62 69.34 C 22.26 64.82 18.79 56.65 19.94 48.94 C 21.03 39.92 28.45 32.21 37.39 30.66 Z" />
</g>
<g id="#e2b838ff">
<path fill="#e2b838" opacity="1.00" d=" M 121.41 30.60 C 132.22 28.46 143.78 35.90 146.21 46.66 C 148.16 54.21 145.60 62.67 139.79 67.85 C 133.29 73.92 122.95 75.25 115.11 71.05 C 107.48 67.21 102.69 58.52 103.56 50.01 C 104.21 40.47 111.98 32.08 121.41 30.60 Z" />
</g>
<g id="#f1694cff">
<path fill="#f1694c" opacity="1.00" d=" M 53.45 79.68 C 59.57 78.53 66.16 80.14 71.01 84.08 C 76.38 88.31 79.49 95.22 79.07 102.05 C 78.78 109.41 74.33 116.40 67.85 119.88 C 60.90 123.75 51.81 123.34 45.25 118.82 C 38.52 114.38 34.73 105.96 35.93 97.98 C 37.01 88.93 44.48 81.19 53.45 79.68 Z" />
</g>
<g id="#15629dff">
<path fill="#15629d" opacity="1.00" d=" M 105.41 79.64 C 112.22 78.41 119.55 80.68 124.45 85.58 C 129.04 90.07 131.43 96.69 130.75 103.08 C 130.10 110.00 125.87 116.45 119.77 119.78 C 113.23 123.50 104.77 123.42 98.29 119.62 C 91.12 115.61 86.75 107.23 87.56 99.05 C 88.22 89.51 95.98 81.13 105.41 79.64 Z" />
</g>
<g id="#ffffffff">
<path fill="#ffffff" opacity="1.00" d=" M 500.88 103.82 C 514.23 103.81 527.58 103.81 540.94 103.81 C 540.94 153.98 540.94 204.15 540.94 254.31 C 527.58 254.31 514.23 254.32 500.88 254.31 C 500.87 204.14 500.87 153.98 500.88 103.82 Z" />
<path fill="#ffffff" opacity="1.00" d=" M 238.20 147.20 C 256.25 126.93 292.91 125.98 310.20 147.70 C 310.17 142.84 310.19 137.98 310.19 133.12 C 323.48 133.12 336.77 133.12 350.06 133.13 C 350.05 170.09 350.08 207.06 350.04 244.02 C 350.10 257.92 344.85 272.00 334.67 281.64 C 322.31 293.59 304.82 298.62 287.99 299.22 C 267.54 300.00 246.80 294.68 229.51 283.65 C 234.14 274.43 238.83 265.25 243.45 256.03 C 256.12 264.55 271.69 269.20 286.98 267.52 C 295.04 266.60 303.48 262.90 307.52 255.49 C 311.61 248.30 309.75 239.72 310.21 231.86 C 304.84 238.67 297.34 243.79 288.92 245.92 C 272.77 250.07 254.34 246.54 241.88 235.14 C 230.33 224.80 224.65 209.25 223.86 194.02 C 222.83 177.46 226.75 159.72 238.20 147.20 M 279.37 162.64 C 270.92 164.66 264.56 171.97 262.41 180.20 C 259.67 190.50 260.91 202.62 268.17 210.84 C 276.40 220.25 292.41 220.98 301.52 212.47 C 307.71 206.82 310.28 198.18 310.19 189.99 C 310.18 181.84 307.63 173.21 301.41 167.63 C 295.57 162.27 286.93 160.72 279.37 162.64 Z" />
<path fill="#ffffff" opacity="1.00" d=" M 378.05 145.06 C 388.95 134.32 405.12 130.18 420.07 132.29 C 430.94 133.61 441.20 139.19 448.02 147.79 C 447.98 142.90 448.00 138.01 448.00 133.12 C 461.27 133.13 474.54 133.12 487.81 133.13 C 487.80 170.09 487.83 207.06 487.80 244.03 C 487.85 257.64 482.84 271.42 473.05 281.04 C 461.50 292.60 445.08 297.94 429.07 299.03 C 407.55 300.55 385.48 295.29 367.27 283.63 C 371.93 274.43 376.57 265.22 381.24 256.03 C 393.95 264.62 409.64 269.25 424.99 267.49 C 433.02 266.53 441.40 262.76 445.36 255.35 C 449.33 248.14 447.61 239.63 448.02 231.79 C 442.90 238.31 435.84 243.34 427.83 245.60 C 411.01 250.37 391.49 246.61 378.74 234.31 C 366.76 223.00 361.53 206.16 361.48 190.01 C 361.20 173.75 366.06 156.58 378.05 145.06 M 417.38 162.58 C 408.78 164.52 402.27 171.95 400.14 180.32 C 397.44 190.63 398.71 202.78 406.04 210.96 C 414.18 220.11 429.73 220.93 438.87 212.84 C 445.34 207.22 448.05 198.37 447.95 190.02 C 447.96 181.88 445.41 173.27 439.23 167.68 C 433.45 162.34 424.90 160.75 417.38 162.58 Z" />
<path fill="#ffffff" opacity="1.00" d=" M 568.41 151.38 C 580.69 137.48 599.78 131.33 617.97 131.80 C 634.48 131.82 651.84 137.20 662.99 149.92 C 676.07 164.61 679.27 185.36 678.11 204.37 C 649.92 204.39 621.74 204.34 593.55 204.40 C 595.97 212.87 601.80 220.72 610.34 223.70 C 624.09 228.66 639.76 223.36 649.79 213.27 C 656.74 220.26 663.77 227.16 670.73 234.14 C 659.89 246.37 644.09 253.41 627.98 255.06 C 610.24 256.97 591.14 254.33 576.39 243.70 C 564.09 235.01 556.35 220.86 554.22 206.10 C 551.30 187.04 555.20 166.01 568.41 151.38 M 601.59 165.67 C 596.66 170.19 594.07 176.63 592.66 183.05 C 608.26 183.07 623.86 183.06 639.46 183.05 C 639.31 175.95 636.74 168.49 630.83 164.17 C 622.34 157.92 609.33 158.35 601.59 165.67 Z" />
<path fill="#ffffff" opacity="1.00" d=" M 755.03 133.80 C 759.85 132.20 764.94 131.68 769.99 131.50 C 770.01 143.69 770.00 155.88 770.00 168.07 C 760.80 167.27 751.01 168.12 743.01 173.10 C 735.50 177.61 730.79 186.24 730.86 194.98 C 730.89 214.76 730.87 234.53 730.88 254.31 C 717.54 254.31 704.21 254.31 690.88 254.31 C 690.87 213.91 690.88 173.52 690.88 133.13 C 704.21 133.12 717.54 133.12 730.88 133.12 C 730.87 139.80 730.89 146.48 730.86 153.16 C 736.33 144.14 744.87 136.90 755.03 133.80 Z" />
<path fill="#ffffff" opacity="1.00" d=" M 36.06 133.12 C 49.42 133.12 62.77 133.12 76.12 133.13 C 76.13 172.44 76.12 211.76 76.12 251.07 C 76.33 259.62 76.12 268.50 72.42 276.39 C 67.46 287.86 56.20 295.68 44.14 298.07 C 29.55 300.86 13.85 298.91 0.77 291.71 C 4.13 282.21 7.52 272.73 10.88 263.23 C 16.44 266.40 23.29 268.87 29.60 266.49 C 34.13 264.76 36.10 259.63 36.03 255.09 C 36.10 214.44 36.04 173.78 36.06 133.12 Z" />
<path fill="#ffffff" opacity="1.00" d=" M 88.63 133.12 C 101.98 133.12 115.34 133.12 128.69 133.13 C 128.69 154.73 128.68 176.34 128.70 197.95 C 128.66 204.36 130.37 211.26 135.34 215.66 C 141.82 221.38 151.96 221.44 159.25 217.24 C 167.26 212.58 170.74 202.93 170.85 194.06 C 170.92 173.75 170.85 153.44 170.88 133.13 C 184.23 133.12 197.58 133.12 210.94 133.12 C 210.94 173.52 210.94 213.92 210.94 254.31 C 197.58 254.31 184.23 254.32 170.88 254.31 C 170.88 247.79 170.85 241.28 170.90 234.77 C 165.69 243.48 157.57 250.55 147.80 253.60 C 134.20 257.89 118.32 256.89 106.38 248.61 C 94.28 240.32 88.71 225.25 88.66 211.00 C 88.57 185.05 88.65 159.08 88.63 133.12 Z" />
<path fill="#ffffff" opacity="1.00" d=" M 740.69 236.32 C 745.22 236.31 749.76 236.31 754.31 236.32 C 754.31 236.95 754.32 238.22 754.32 238.86 C 752.52 238.88 750.73 238.86 748.94 238.89 C 748.94 243.65 748.94 248.42 748.94 253.18 C 748.20 253.18 746.74 253.18 746.00 253.18 C 746.00 248.42 746.00 243.65 746.00 238.88 C 744.22 238.87 742.45 238.88 740.70 238.87 C 740.67 238.02 740.67 237.17 740.69 236.32 Z" />
<path fill="#ffffff" opacity="1.00" d=" M 756.63 236.31 C 757.49 236.31 759.23 236.31 760.09 236.31 C 761.94 240.00 763.78 243.70 765.64 247.39 C 767.50 243.71 769.31 240.00 771.16 236.30 C 772.01 236.31 773.71 236.32 774.56 236.32 C 774.56 241.94 774.56 247.56 774.56 253.19 C 773.89 253.19 772.55 253.18 771.88 253.18 C 771.88 249.05 771.87 244.91 771.86 240.77 C 769.91 244.22 768.71 248.13 766.32 251.29 L 764.74 251.68 C 763.01 247.99 761.15 244.36 759.37 240.70 C 759.37 244.86 759.37 249.02 759.37 253.19 C 758.69 253.19 757.31 253.19 756.63 253.18 C 756.62 247.56 756.62 241.94 756.63 236.31 Z" />
</g>
</svg>
