<svg version="1" xmlns="http://www.w3.org/2000/svg" width="1600" height="1600" viewBox="0 0 1200.000000 1200.000000"><path d="M569 50c-41 7.5-76.9 25.4-105 52.4-12.6 12.1-19.4 20.4-29.2 35.6-12.5 19.2-21.6 41.6-25.2 62-.3 1.9-.8 4.6-1.1 6-1.4 6.7-2.9 26-2.8 36 0 7.9 1.3 26.2 1.9 27.2.3.4-.1.8-.8.8-1 0-1 .2-.1.8.7.4 1.5 3.6 1.9 7.2.4 3.5 2 11.4 3.5 17.5 3.1 11.9 3 11.6 4.8 15.9.6 1.6.9 3.6.7 4.3-.3.8-.2 1.2.3.9 1.1-.7 4.2 7.4 3.4 8.7-.3.6-.1.7.5.3 1.1-.6 1.7 1.3 1.3 3.7-.1.5.2.6.7.3.4-.2 2.4 2.6 4.3 6.4 1.8 3.9 3.7 7 4.2 7 .4 0 .7.6.7 1.4 0 .8.4 1.6.9 1.8.5.1 1.1.9 1.3 1.7.2.7 1.6 2.8 3.1 4.5 1.5 1.7 2.6 3.8 2.4 4.7-.3.9.1 1.6.9 1.5.7 0 1.4.3 1.5.9.2.5 1.3 1.8 2.6 2.9 1.3 1 2.2 2 2 2.3-.3.2 1 1.9 2.7 3.7 1.7 1.8 4.3 4.6 5.8 6.2 1.5 1.6 3.7 3.8 4.8 4.8 1.5 1.5 1.7 2.2.8 2.9-.8.5-.5.6 1 .2 1.3-.4 2.3-.2 2.3.4.1.6.2 1.7.3 2.3.1.7.8 1.2 1.5 1 1.7-.4 5.2 2.8 4.5 4-.3.4 0 .7.8.6.8-.2 1.3.6 1.2 1.9-.1 1.3.3 2 .7 1.7.5-.3.7-1 .4-1.5-1.1-1.7 1-.8 3.8 1.6 1.5 1.3 2.7 2.9 2.7 3.5 0 .6.5.8 1.2.4.6-.4 1.6 0 2.2.8.6.8 1.9 1.7 2.9 2.1 1 .4 1.5 1.1 1.2 1.7-.3.5 0 .7.7.5.8-.3 2.3.4 3.5 1.5 1.2 1.1 2.7 2 3.3 2 .5 0 1 .5 1 1.1 0 .5.4.8.9.4.5-.3 1.2-.1 1.6.5.3.5 2.1 1.7 4 2.6 1.9.9 3.2 2 2.9 2.5-.3.5.1.6.9.3s2.2.2 3.1 1.1c.9.9 1.6 1.4 1.6 1.1 0-.3 2.3.6 5.1 2 2.8 1.5 5.6 2.7 6.3 2.9.6.1 2.6.8 4.4 1.5 2.5.9 3 1.5 2 2.2-.8.5-.2.6 1.6.2 2-.5 2.7-.4 2.2.4-.4.7-.2 1 .7.6.7-.2 2.7.1 4.3.7 1.6.7 4 1.4 5.3 1.6 1.4.2 3.2.8 4.2 1.4 1 .5 2.9.9 4.4.9 1.4 0 2.4.3 2.2.7-.3.5 1.3.9 3.5 1.1 2.3.1 4.6.5 5.1.9.5.3 2.6.7 4.6.9 2 .1 6.1.6 9.1 1 8.5 1.1 34.4 1.1 35.2-.1.5-.6.8-.5.8.3 0 .7.4 1 1 .7 1-.6 6.2-1.3 13.2-1.8 2.1-.2 4-.6 4.4-.9.3-.4 1.1-.5 1.7-.2.7.2 5.9-.7 11.7-2 5.8-1.3 10.9-2.2 11.4-1.9.5.4.6.1.2-.6-.5-.8-.3-1.1.5-1 .8.1 2.3-.1 3.4-.5 8.2-3.1 9.8-3.6 10.7-3 .7.4.8.2.4-.4-.4-.7-.3-1.2.3-1.2.5 0 2.2-.5 3.8-1.2 1.5-.6 3.1-1.2 3.5-1.2.3-.1 1-.4 1.4-.8.4-.4 1.3-.3 2.1.4 1.1.8 1.2.7.8-.5-.6-1.4 1.5-2.8 3.9-2.6.5 0 1.2-.3 1.5-.8 1.2-1.8 15.2-9.4 16.1-8.8.6.4.7-.1.3-1.1-.4-1.2-.3-1.5.5-1 .7.4 1.2.2 1.2-.5s.3-1 .6-.6c.3.3 1.7-.4 3.1-1.6 1.3-1.2 2.7-2.2 3-2.2.4 0 2.7-1.9 5.2-4.2 2.5-2.4 5.2-4.1 5.9-3.8.7.3 1.1.1.8-.4-.3-.4 1.4-2.7 3.8-4.9 4.3-4.1 6.5-5.4 5-3-.4.7-.3.8.5.4.6-.4.9-1.1.6-1.5-.2-.5 2.3-3.7 5.8-7.2 3.4-3.5 7.5-8.2 9.2-10.4 4.8-6.5 6.2-7.8 7.7-6.9 1 .6 1 .4-.1-.9-.8-1-.9-1.7-.3-1.7.6 0 1.3-.9 1.7-1.9.3-1.1 1.9-3.6 3.6-5.7 1.6-2.1 3.7-5.3 4.6-7.1.8-1.8 2-3 2.6-2.6.5.3.7.2.4-.4-.3-.5 1.1-4.3 3.2-8.4 2-4.1 5-10.6 6.6-14.4 1.6-3.9 3.2-7.4 3.7-8 .4-.5.8-1.9.8-3.1 0-1.3.5-2.6 1-2.9.6-.4 1-1.2.9-1.8-.3-2.9.2-3.9 1.7-3.3 1.4.5 1.5.4.5-.8-.8-.9-.8-2.1-.2-3.8.5-1.4 1.2-4 1.5-5.9 1-5.7 1.7-9.3 2.1-10.9 2.7-9.7 2.7-52 0-65.5-2.2-10.7-4.7-21.1-5.7-22.9-.6-1.1-1-2.1-.8-2.1.4 0-.8-4.3-2-7-.4-1.1-1.7-4.3-2.8-7-2.4-5.8-8.7-19.1-10.5-21.9-.7-1.1-3.2-5.2-5.6-9-11.5-18.5-24.5-33-46.3-51.2-6.1-5.2-25.2-17-35.3-21.9-17-8.2-33-13.3-51.5-16.5-14.5-2.5-49.3-2.6-63 0zM213.7 320.6c-.1.1-3.7.4-8 .7-28.6 2.3-58.4 11.8-83.2 26.8-20 12.1-44.8 34.7-58 53.2-19.4 26.9-32.5 59.9-35.1 88.2-.3 3.3-.9 6.6-1.3 7.5-.9 1.9-.7 29.5.3 38 .4 3.6 1.4 9.8 2.2 13.9.7 4.1 1.2 7.7.9 7.9-.3.3-.1 1 .4 1.6.5.6 1.4 3.6 2.2 6.6.7 3 1.4 5.7 1.4 6 .1.3.5 1.2.8 2 2 4.6 3.6 10.3 3.1 11.1-.3.5-.1.9.5.9.9 0 3.7 6.8 3.3 8.2-.1.5.2.8.6.8.9 0 3.7 6.4 3.3 7.6-.2.4.2 1 .7 1.3 1.4.9 6.4 10.1 5.5 10.1-.4 0-.1.6.8 1.3.8.7 2.4 2.8 3.5 4.7 1 1.9 2.2 3.7 2.5 4 1.9 1.6 5.7 8.5 5.2 9.3-.3.6-.1.7.5.3 1.3-.8 5.5 4.8 4.4 5.9-.4.5-.2.5.5.1s1.7.2 2.3 1.4c.6 1.1 5 6 9.8 10.8 4.7 4.8 8.5 9.1 8.4 9.5-.1.5.1.6.6.3.4-.2 2.3.9 4.2 2.6 1.9 1.7 4.6 3.9 5.9 4.9 1.8 1.4 2.1 2.2 1.2 3.2-.8 1-.7 1.4.4 1.4.8 0 1.2-.4.9-.9-.3-.4.2-.8 1-.8.9 0 1.6.4 1.6 1 0 .5.7 1 1.5 1 .7 0 1.9.8 2.4 1.7.6 1 1.1 1.4 1.1 1 0-.5.7-.2 1.5.5 3.2 2.9 4.5 3.9 4.5 3.3 0-.3 1.1.2 2.6 1.1 1.6 1.1 2.3 2.3 1.9 3.3-.5 1.2-.3 1.3.5.5 1.2-1.2 6 .3 6 1.8 0 .5.7.8 1.6.8.9 0 2.8.9 4.2 1.9 1.5 1 3 1.9 3.4 2 2.2.4 4.4 1.6 5.6 3 .8.9 1.1 1 .7.3-.5-1-.1-1 2.2 0 1.5.7 3.1 1.6 3.4 2.1.3.5 1 .8 1.5.7 1.4-.1 9.4 2.4 9.4 3 0 .3 1.2.7 2.7.8 1.5.1 2.9.5 3.2 1 .3.4 2 .8 3.6 1 1.7.1 3.7.6 4.5.9 2.2.9 2.7 1 5.6 1.2 1.4 0 2.3.5 2 1-.3.4.5.7 1.7.6 4.3-.5 11.2 1 10.9 2.4-.1.7.2 1 .8.6.6-.3.7-1.1.4-1.7-.5-.7-.2-.8.6-.3 1.6 1 4.2 1.3 12.5 1.4 4.3.1 5.6.4 4.5 1.1-.8.5-1 1-.4 1s1.4-.3 1.8-.7c1.2-1.2 15-1.1 16.5.1 1.1.8 1.3.8.8-.1-.6-.9.4-1.2 3.5-1.2 2.4 0 5.3-.2 6.6-.5 1.3-.3 2.2 0 2.2.7 0 .9.2.9.8 0 1.1-1.7 8.2-2.5 9.9-1.1 1.1.9 1.3.8 1.1-.2-.2-.8.2-1.5.7-1.5.6-.1 3.3-.5 6-.9 2.8-.4 5.4-.7 5.9-.6.5.1 1.2-.2 1.5-.7.3-.4 2.8-1.4 5.5-2.1 4-1 5.1-1 5.9 0 .6.9.7.8.3-.5-.3-.9-.2-1.7.2-1.8 2.7-.3 5.7-1.1 6.6-1.8.6-.4 2.4-1.1 3.9-1.5 1.6-.4 6.5-2.4 10.9-4.6 4.5-2.2 8.5-3.7 8.9-3.5.4.3 1-.2 1.3-1.1.4-1 1.2-1.4 2.3-1 1 .4 1.4.4 1 0-1-1.1 7.1-5.7 8.5-4.8.6.4.9.3.6-.2-.4-.5 4-4.2 9.5-8.1 5.6-4 11.9-8.8 14-10.7 2-1.9 3.7-3.3 3.7-3.2 0 .9 12.8-12.5 13.3-13.9.4-.8 1.1-1.5 1.7-1.5.6 0 .9.4.5.9-.3.5-.1 1.2.4 1.6.6.3.8-.5.6-1.7-.3-1.6.7-3.6 3.2-6.3 2-2.2 4.7-5.7 6-7.7 1.7-2.5 3-3.5 4.1-3.1 1.4.4 1.4.3.3-.5-1.2-.8-1.1-1.3.1-3.1.8-1.1 1.8-1.8 2.3-1.3.5.4.5.2.2-.5-.4-.6-.2-1.8.5-2.5 1.3-1.4 2-2.6 8.2-13.8 1.6-3 3.3-5.7 3.8-5.8.4-.2.6-.8.2-1.3-.3-.5 0-.9.6-.9s.9-.4.5-.9c-.3-.5 0-2.1.6-3.5 1-2.2 1.5-2.4 2.8-1.3 1.4 1 1.4 1 .4-.4-1.3-1.6-.6-6.2.8-5.3.5.3.6-.2.3-1.1-.4-.8-.2-2.1.4-2.8 1.3-1.6 3.7-8.9 3.4-10.4-.1-.6.2-1.4.8-1.8.5-.3 1-1.5 1-2.6 0-1 .4-1.9 1-1.9.5 0 .7-.7.4-1.5-.4-.8-.3-2.3.1-3.3.4-.9.9-2.4 1-3.2.1-.8.5-2.7.8-4.1.8-4.2 2.1-14.3 1.9-15.2-.1-.4.2-.7.7-.7.9 0 .7-43.4-.3-48.5-.3-1.7-.8-4.6-1.1-6.5-2.2-12.2-5.4-23.9-9-33.5-1.4-3.9-2.9-7.9-3.2-9-1.5-4.9-11.8-24-17.8-33-36.2-54.1-94.8-85.6-161.7-86.9-5.4-.1-9.9-.1-10.1 0zM962.8 320.4c-.1.2-2.8.6-5.9.9-15.5 1.7-34.9 6.2-48.7 11.3-49.9 18.7-91.2 58.5-112.6 108.7-2.6 6-4.8 11.6-5 12.5-.2 1-.6 2.4-.9 3.2-1.8 4.3-5.7 22.7-7.2 33.5-1.2 8.5-1.4 38.3-.4 45 .6 3.8 1.1 8.6 1.3 10.5.1 2 .5 4 .8 4.6.7 1.1 1.9 8.3 2.2 12.6 0 1.4.4 2.4.8 2.2.4-.3 1 .8 1.4 2.3 1.4 6.6 4 13.9 6.2 17.7.3.5-.1.6-.8.1-.8-.5-.4.5.8 2.2 2.3 3.3 3 6.9 1 5.7-.7-.4-.8-.3-.4.4.4.6 1.3.9 2.1.5.9-.3 1.5.1 1.5 1 0 .8 1.4 4.1 3 7.2 3.3 6.3 3.5 6.9 1.8 5.9-.7-.5-.8-.3-.4.5.5.7 1 1 1.3.7.8-.8 6.4 8.3 6.6 10.5.1 1 .4 1.6.7 1.4.3-.1 1.1.3 1.8 1.1s.9 1.4.5 1.4 0 .5 1 1.1c.9.5 1.7 1.5 1.7 2 0 .6.7 1.7 1.5 2.6.8.8 1.2 2 .8 2.6-.3.7-.3.9.2.5.6-.6 5.3 4 5.2 5.2 0 .3 1.8 2.3 4.1 4.6 2.3 2.2 4.2 4.4 4.2 4.7 0 .4 1.8 2.3 4 4.3s3.7 4.1 3.3 4.7c-.3.6-.1.7.6.3.6-.4 1.4 0 1.7.8.3.9 1 1.6 1.5 1.6s2.5 1.5 4.3 3.2c1.8 1.8 4.6 4.3 6.2 5.6 1.6 1.3 2.2 2 1.4 1.6-.9-.4-1.2-.3-.7.2s1.6.9 2.5.9c.9 0 2.2 1.1 2.8 2.3.6 1.3 1.3 1.9 1.6 1.2.2-.7 1.4-.2 3.1 1.4 1.5 1.4 2.7 2.2 2.7 1.8 0-.4.4-.2.8.3.4.6 2.8 2.2 5.5 3.5 2.6 1.4 4.7 2.8 4.7 3.2 0 .5.7.8 1.6.8.9 0 1.2.5.8 1.2-.4.6-.3.8.3.5.6-.4 5.1 1.3 9.9 3.8 4.9 2.5 9.5 4.5 10.2 4.5.6 0 1.2.5 1.2 1.1 0 .5.4.8.8.5.5-.3 2 .1 3.5.9 1.4.7 2.8 1.1 3.1.7.3-.3.6 0 .6.7s.5.9 1 .6c.6-.4 1.8-.1 2.7.7.9.7 1.8 1.2 2 1 1.1-.8 3.3 0 2.7 1-.4.7-.3.8.5.4 1.3-.9 7.3.2 6.7 1.2-.2.4 1 .7 2.7.8 1.8 0 4.3.3 5.7.7 4.9 1.2 7.5 1.7 10.7 1.9 1.8.1 3.3.5 3.3.8 0 .5 5.4.9 17.8 1.2 3.4 0 6.2.5 6.2 1.1 0 .6.4.6 1.3 0 1.5-1.2 7.7-1.1 9.6.1 1 .6 1.2.5.7-.2-.5-.9.8-1.2 4.3-1.3 2.8-.1 5.9-.2 6.9-.2.9-.1 1.6.5 1.4 1.2-.1.7.2 1 .8.6.6-.3.8-1.1.5-1.6-.4-.5.2-.9 1.2-1 2.6-.1 8.9-.8 10.5-1.1.7-.2 1.2.3 1 1-.1.8.2 1.1.8.7.6-.3.8-1 .5-1.5-.3-.5.7-1.1 2.2-1.4 6.9-1.4 10-1.9 12-2 1.1-.1 1.9-.4 1.8-.7-.6-.9 9.3-3.1 10.6-2.3.7.4.9.3.6-.3-.4-.6 2-2 5.6-3.3 7.9-2.9 28.1-12.2 28.5-13.2.2-.5.9-.8 1.7-.8.7 0 1.8-.7 2.5-1.5s1.6-1.2 2.1-.9c.5.3.9.1.9-.5s1.5-1.8 3.3-2.7c1.7-.9 4.2-2.5 5.4-3.6 1.2-1.2 2.7-1.7 3.4-1.3.7.5 1 .4.6-.2-.4-.6 0-1.6.8-2.3 1.2-1 1.9-1 3.3.1 1.5 1.3 1.6 1.2.3-.4-1.2-1.5-.9-2.1 1.1-1.8.5 0 .7-.3.5-.7-.1-.5 1.2-2.1 3-3.6 2.2-1.9 3.3-2.3 3.7-1.4.3.8.5.7.3-.2-.2-1.6 8.3-10.4 11-11.4.8-.3 1.2-1 .9-1.5-.6-.9 2.2-2.6 3.7-2.2.5.1.6-.3.2-.8-.5-1 .2-2.1 7.1-10 1.7-2 4-5.1 5.3-6.9 1.2-1.8 2.6-3 3.1-2.7.4.3.6-.4.3-1.5-.4-1.4 0-2 1.1-2 .8 0 1.3-.6 1-1.3-.2-.7.4-2.2 1.4-3.2 1-1.1 2.5-3.4 3.4-5 .8-1.7 2.7-5.1 4-7.7 1.4-2.6 2.9-4.4 3.3-4 .5.4.5.1.1-.6s-.1-2.4.8-3.7c.9-1.3 1.6-3.1 1.6-4 0-1 .5-1.3 1.2-.9.6.4.8.3.5-.3-.7-1.2 2.7-10.6 3.5-9.8.3.4.6 0 .5-.7-.2-2.5 1.5-8.8 2.4-8.8.5 0 .8-.3.8-.8-.4-2.1.2-5.3.9-4.9.4.3.7-.5.8-1.6.1-3.2 1.3-9.8 2-10.9.4-.6.8-2.7 1-4.7.2-2 .6-4.7.9-6.1.6-2.7 1.6-13 1.9-19.5.1-2.2.5-4.6.9-5.3.5-.6.5-1.2 0-1.2-.4 0-.8-3.2-.7-7.1 0-10.2-2.1-29.3-4-35.7-.3-.9-.7-2.8-1-4.2-1.3-6.9-5.1-19.4-8.7-28.4-24.6-62.2-83.9-108.9-152.4-120.2-8.5-1.4-41.6-2.9-42.7-2z"/><path d="M761.4 354.4c.1.8.5 1.8.8 2.2.4.3.5-.1.4-1-.1-.8-.5-1.8-.8-2.2-.4-.3-.5.1-.4 1zM437 356.1c0 .5.5.7 1 .4.6-.3 1-.8 1-1.1 0-.2-.4-.4-1-.4-.5 0-1 .5-1 1.1zM759.5 367.1c-.4.6-.5 1.2-.2 1.5.2.3.7-.2 1-1.1.7-1.7.1-2-.8-.4zM447 370.1c0 .5.5.7 1 .4.6-.3 1-.8 1-1.1 0-.2-.4-.4-1-.4-.5 0-1 .5-1 1.1zM447.6 374.7c-.6 1.4-.5 1.5.5.6.7-.7 1-1.5.7-1.8-.3-.3-.9.2-1.2 1.2zM745.5 376c-.3.5-.1 1 .4 1 .6 0 1.1-.5 1.1-1 0-.6-.2-1-.4-1-.3 0-.8.4-1.1 1zM455.4 380c0 1.3.4 1.6 1 1 .7-.7.7-1.3 0-2-.6-.6-1-.3-1 1zM739.5 380c-.3.5-.1 1 .4 1 .6 0 1.1-.5 1.1-1 0-.6-.2-1-.4-1-.3 0-.8.4-1.1 1zM461.6 385.8c-.3.5.1.9.9.9s1.2-.4.9-.9c-.3-.4-.7-.8-.9-.8-.2 0-.6.4-.9.8zM737.6 386.2c.3.5 1 .6 1.5.3 1.3-.9 1.1-1.2-.6-1.2-.8 0-1.2.4-.9.9zM467.6 390.2c.3.5 1 .6 1.5.3 1.3-.9 1.1-1.2-.6-1.2-.8 0-1.2.4-.9.9zM728.6 389.8c-.3.5.1.9.9.9s1.2-.4.9-.9c-.3-.4-.7-.8-.9-.8-.2 0-.6.4-.9.8zM463.5 392.9c-.3.5-.2 1.2.3 1.5.5.3.9-.1.9-.9 0-1.7-.3-1.9-1.2-.6zM469.6 393.8c-.3.5.1.9.9.9s1.2-.4.9-.9c-.3-.4-.7-.8-.9-.8-.2 0-.6.4-.9.8zM720.6 398.2c.3.5 1 .6 1.5.3 1.3-.9 1.1-1.2-.6-1.2-.8 0-1.2.4-.9.9zM727 398.1c0 .5.5.7 1 .4.6-.3 1-.8 1-1.1 0-.2-.4-.4-1-.4-.5 0-1 .5-1 1.1zM481.5 400.9c-.3.5-.2 1.2.3 1.5.5.3.9-.1.9-.9 0-1.7-.3-1.9-1.2-.6zM713.3 403.5c0 .8.4 1.2.9.9.5-.3.6-1 .3-1.5-.9-1.3-1.2-1.1-1.2.6zM483.9 408.7c-1.3 1.6-1.2 1.7.4.4.9-.7 1.7-1.5 1.7-1.7 0-.8-.8-.3-2.1 1.3zM493.5 410c-.3.5-.1 1 .4 1 .6 0 1.1-.5 1.1-1 0-.6-.2-1-.4-1-.3 0-.8.4-1.1 1zM715 409.5c0 .5.5 1.7 1 2.5s1 1 1 .5c0-.6-.5-1.7-1-2.5s-1-1.1-1-.5zM701.9 411.2c-.5 1.8-.6 3.8-.1 3.4.7-.8 1.2-3.6.6-3.6-.2 0-.4.1-.5.2zM697.4 418.4c.1.8.5 1.8.8 2.2.4.3.5-.1.4-1-.1-.8-.5-1.8-.8-2.2-.4-.3-.5.1-.4 1zM504.6 422.2c.3.5 1 .6 1.5.3 1.3-.9 1.1-1.2-.6-1.2-.8 0-1.2.4-.9.9zM693.6 422.2c.3.5 1 .6 1.5.3 1.3-.9 1.1-1.2-.6-1.2-.8 0-1.2.4-.9.9zM509 424c0 .5.5 1 1.1 1 .5 0 .7-.5.4-1-.3-.6-.8-1-1.1-1-.2 0-.4.4-.4 1zM685.9 423.2c-.5 1.8-.6 3.8-.1 3.4.7-.8 1.2-3.6.6-3.6-.2 0-.4.1-.5.2zM689.5 424c-.3.5-.1 1 .4 1 .6 0 1.1-.5 1.1-1 0-.6-.2-1-.4-1-.3 0-.8.4-1.1 1zM517.9 425.2c-.5 1.8-.6 3.8-.1 3.4.7-.8 1.2-3.6.6-3.6-.2 0-.4.1-.5.2zM673 426.1c0 .5.5.7 1 .4.6-.3 1-.8 1-1.1 0-.2-.4-.4-1-.4-.5 0-1 .5-1 1.1zM676.6 425.8c-.3.5.1.9.9.9s1.2-.4.9-.9c-.3-.4-.7-.8-.9-.8-.2 0-.6.4-.9.8zM521.3 430.5c0 .8.4 1.2.9.9.5-.3.6-1 .3-1.5-.9-1.3-1.2-1.1-1.2.6zM529.5 430c.3.5.8 1 1.1 1 .2 0 .4-.5.4-1 0-.6-.5-1-1.1-1-.5 0-.7.4-.4 1zM658.7 432.1c.7.7 1.5 1 1.8.7.3-.3-.2-.9-1.2-1.2-1.4-.6-1.5-.5-.6.5zM645 434.1c0 .5.5.7 1 .4.6-.3 1-.8 1-1.1 0-.2-.4-.4-1-.4-.5 0-1 .5-1 1.1zM649 434.1c0 .5.5.7 1 .4.6-.3 1-.8 1-1.1 0-.2-.4-.4-1-.4-.5 0-1 .5-1 1.1zM665 434c0 .5.5 1 1.1 1 .5 0 .7-.5.4-1-.3-.6-.8-1-1.1-1-.2 0-.4.4-.4 1zM649.5 436.9c-.3.5-.2 1.2.3 1.5.5.3.9-.1.9-.9 0-1.7-.3-1.9-1.2-.6zM545.9 437.2c-.5 1.8-.6 3.8-.1 3.4.7-.8 1.2-3.6.6-3.6-.2 0-.4.1-.5.2zM577 438.1c0 .5.5.7 1 .4.6-.3 1-.8 1-1.1 0-.2-.4-.4-1-.4-.5 0-1 .5-1 1.1zM625.5 438c.3.5.8 1 1.1 1 .2 0 .4-.5.4-1 0-.6-.5-1-1.1-1-.5 0-.7.4-.4 1zM629.5 438c.3.5.8 1 1.1 1 .2 0 .4-.5.4-1 0-.6-.5-1-1.1-1-.5 0-.7.4-.4 1zM661.6 438.2c.3.5 1 .6 1.5.3 1.3-.9 1.1-1.2-.6-1.2-.8 0-1.2.4-.9.9zM611.5 438.9c-.3.5-.2 1.2.3 1.5.5.3.9-.1.9-.9 0-1.7-.3-1.9-1.2-.6zM644.7 440.1c.7.7 1.5 1 1.8.7.3-.3-.2-.9-1.2-1.2-1.4-.6-1.5-.5-.6.5zM633.5 440.9c-.3.5-.2 1.2.3 1.5.5.3.9-.1.9-.9 0-1.7-.3-1.9-1.2-.6zM569 442.1c0 .5.5.7 1 .4.6-.3 1-.8 1-1.1 0-.2-.4-.4-1-.4-.5 0-1 .5-1 1.1zM597 442.1c0 .5.5.7 1 .4.6-.3 1-.8 1-1.1 0-.2-.4-.4-1-.4-.5 0-1 .5-1 1.1zM631.5 445.1c-.4.6-.5 1.2-.2 1.5.2.3.7-.2 1-1.1.7-1.7.1-2-.8-.4zM599.4 445.8c.4.3 1.4.7 2.2.8.9.1 1.3 0 1-.4-.4-.3-1.4-.7-2.2-.8-.9-.1-1.3 0-1 .4zM623 445.5c0 .7 3 1.3 3.4.7.3-.4-.4-.9-1.5-.9-1-.1-1.9 0-1.9.2zM591.5 446.9c-.3.5-.2 1.2.3 1.5.5.3.9-.1.9-.9 0-1.7-.3-1.9-1.2-.6zM1171.6 543.8c-.3.5.1.9.9.9s1.2-.4.9-.9c-.3-.4-.7-.8-.9-.8-.2 0-.6.4-.9.8zM1147.4 613.2l-1.9 2.3 2.3-1.9c2.1-1.8 2.7-2.6 1.9-2.6-.2 0-1.2 1-2.3 2.2zM52.5 620c-.3.6.1.7.9.4 1.8-.7 2.1-1.4.7-1.4-.6 0-1.3.4-1.6 1zM802.7 620.1c.7.7 1.5 1 1.8.7.3-.3-.2-.9-1.2-1.2-1.4-.6-1.5-.5-.6.5zM1143 623.8c0 .5.7.9 1.5.9s1.2-.4.9-.9c-.3-.4-.9-.8-1.5-.8-.5 0-.9.4-.9.8zM59.1 628.7c.7 1.2 1.5 2 1.8 1.7.3-.2-.3-1.2-1.3-2.2-1.7-1.6-1.8-1.6-.5.5zM67.3 637.5c0 .8.4 1.2.9.9.5-.3.6-1 .3-1.5-.9-1.3-1.2-1.1-1.2.6zM821.3 637.5c0 .8.4 1.2.9.9.5-.3.6-1 .3-1.5-.9-1.3-1.2-1.1-1.2.6zM373.4 641.8c.4.3 1.4.7 2.2.8.9.1 1.3 0 1-.4-.4-.3-1.4-.7-2.2-.8-.9-.1-1.3 0-1 .4zM73.5 645.9c-.3.5-.2 1.2.3 1.5.5.3.9-.1.9-.9 0-1.7-.3-1.9-1.2-.6zM67.5 647.9c-.3.5-.2 1.2.3 1.5.5.3.9-.1.9-.9 0-1.7-.3-1.9-1.2-.6zM75.5 650.1c-.3.4.2.6 1 .5 2.1-.3 2.8-1.3 1-1.3-.9 0-1.8.4-2 .8zM365 652c0 .5.5 1 1.1 1 .5 0 .7-.5.4-1-.3-.6-.8-1-1.1-1-.2 0-.4.4-.4 1zM80 656c.8.5 2 1 2.5 1 .6 0 .3-.5-.5-1s-1.9-1-2.5-1c-.5 0-.3.5.5 1zM361.5 660c.3.5.8 1 1.1 1 .2 0 .4-.5.4-1 0-.6-.5-1-1.1-1-.5 0-.7.4-.4 1zM837 660c0 .5.5 1 1.1 1 .5 0 .7-.5.4-1-.3-.6-.8-1-1.1-1-.2 0-.4.4-.4 1zM1109.4 660.4c.1.8.5 1.8.8 2.2.4.3.5-.1.4-1-.1-.8-.5-1.8-.8-2.2-.4-.3-.5.1-.4 1zM357.6 662.2c.3.5 1 .6 1.5.3 1.3-.9 1.1-1.2-.6-1.2-.8 0-1.2.4-.9.9zM1105 666c0 .5.5 1 1.1 1 .5 0 .7-.5.4-1-.3-.6-.8-1-1.1-1-.2 0-.4.4-.4 1zM93 668c0 .5.5 1 1.1 1 .5 0 .7-.5.4-1-.3-.6-.8-1-1.1-1-.2 0-.4.4-.4 1zM345.5 668.9c-.3.5-.2 1.2.3 1.5.5.3.9-.1.9-.9 0-1.7-.3-1.9-1.2-.6zM345.6 673.8c-.2.4-.1 1.4.4 2.2.7 1.1.9.9.7-.8-.1-2.4-.3-2.6-1.1-1.4zM1090.1 676.4c-.9 1.1-.9 1.6 0 2.2.7.4.9.3.5-.4-.3-.6.2-1.5 1.1-2.1 1-.6 1.3-1.1.7-1.1-.6 0-1.7.6-2.3 1.4zM109.5 678c-.3.5-.1 1 .4 1 .6 0 1.1-.5 1.1-1 0-.6-.2-1-.4-1-.3 0-.8.4-1.1 1zM341.6 678.2c.3.5 1 .6 1.5.3 1.3-.9 1.1-1.2-.6-1.2-.8 0-1.2.4-.9.9zM859.4 677.8c.4.3 1.4.7 2.2.8.9.1 1.3 0 1-.4-.4-.3-1.4-.7-2.2-.8-.9-.1-1.3 0-1 .4zM333.9 679.2c-.5 1.8-.6 3.8-.1 3.4.7-.8 1.2-3.6.6-3.6-.2 0-.4.1-.5.2zM854.7 680.1c.7.7 1.5 1 1.8.7.3-.3-.2-.9-1.2-1.2-1.4-.6-1.5-.5-.6.5zM117.4 682.2c-.4.7-.4 1 .1.6.4-.4 1.5-.2 2.4.5 1.4 1.1 1.4 1 .2-.6-1.6-2-1.8-2.1-2.7-.5zM873.3 683.5c0 .8.4 1.2.9.9.5-.3.6-1 .3-1.5-.9-1.3-1.2-1.1-1.2.6zM1079.6 683.3c.3 1 .9 1.5 1.2 1.2.3-.3 0-1.1-.7-1.8-1-.9-1.1-.8-.5.6zM117.5 686c.3.5.8 1 1.1 1 .2 0 .4-.5.4-1 0-.6-.5-1-1.1-1-.5 0-.7.4-.4 1zM323.5 686.1c-.3.4.2.6 1 .5 2.1-.3 2.8-1.3 1-1.3-.9 0-1.8.4-2 .8zM99.6 687.3c.3 1 .9 1.5 1.2 1.2.3-.3 0-1.1-.7-1.8-1-.9-1.1-.8-.5.6zM126 687.4c0 .2.8 1 1.8 1.7 1.5 1.3 1.6 1.2.3-.4s-2.1-2.1-2.1-1.3zM1084.5 688c-.3.6.1.7.9.4 1.8-.7 2.1-1.4.7-1.4-.6 0-1.3.4-1.6 1zM119 690c0 .5.5 1 1.1 1 .5 0 .7-.5.4-1-.3-.6-.8-1-1.1-1-.2 0-.4.4-.4 1zM325.6 690.2c.3.5 1 .6 1.5.3 1.3-.9 1.1-1.2-.6-1.2-.8 0-1.2.4-.9.9zM123.5 694c.3.5.8 1 1.1 1 .2 0 .4-.5.4-1 0-.6-.5-1-1.1-1-.5 0-.7.4-.4 1zM133.5 694c-.3.5-.1 1 .4 1 .6 0 1.1-.5 1.1-1 0-.6-.2-1-.4-1-.3 0-.8.4-1.1 1zM880.6 694.2c.3.5 1 .6 1.5.3 1.3-.9 1.1-1.2-.6-1.2-.8 0-1.2.4-.9.9zM1057 694.1c0 .5.5.7 1 .4.6-.3 1-.8 1-1.1 0-.2-.4-.4-1-.4-.5 0-1 .5-1 1.1zM1061.5 694c.3.5.8 1 1.1 1 .2 0 .4-.5.4-1 0-.6-.5-1-1.1-1-.5 0-.7.4-.4 1zM1065 694c0 .5.5 1 1.1 1 .5 0 .7-.5.4-1-.3-.6-.8-1-1.1-1-.2 0-.4.4-.4 1zM319 694.4c0 .2.8 1 1.8 1.7 1.5 1.3 1.6 1.2.3-.4s-2.1-2.1-2.1-1.3zM305 698c0 .5.5 1 1.1 1 .5 0 .7-.5.4-1-.3-.6-.8-1-1.1-1-.2 0-.4.4-.4 1zM884 698c-1.2.7-1 .9.7.7 1.2 0 1.9-.5 1.7-.9-.6-1-.6-1-2.4.2zM889.4 697.8c.4.3 1.4.7 2.2.8.9.1 1.3 0 1-.4-.4-.3-1.4-.7-2.2-.8-.9-.1-1.3 0-1 .4zM1057.4 698.4c.1.8.5 1.8.8 2.2.4.3.5-.1.4-1-.1-.8-.5-1.8-.8-2.2-.4-.3-.5.1-.4 1zM1061.5 697.9c-.3.5-.2 1.2.3 1.5.5.3.9-.1.9-.9 0-1.7-.3-1.9-1.2-.6zM291 700.1c0 .5.5.7 1 .4.6-.3 1-.8 1-1.1 0-.2-.4-.4-1-.4-.5 0-1 .5-1 1.1zM297.3 700.9c0 1.1.5 1.8.9 1.5.4-.3.5-1.1.1-1.9-.7-2.1-1.2-1.9-1 .4zM897.4 700.4c.1.8.5 1.8.8 2.2.4.3.5-.1.4-1-.1-.8-.5-1.8-.8-2.2-.4-.3-.5.1-.4 1zM141.6 701.8c-.3.5.1.9.9.9s1.2-.4.9-.9c-.3-.4-.7-.8-.9-.8-.2 0-.6.4-.9.8zM1049.5 702c.3.5.8 1 1.1 1 .2 0 .4-.5.4-1 0-.6-.5-1-1.1-1-.5 0-.7.4-.4 1zM911.9 702.2c-.5 1.8-.6 3.8-.1 3.4.7-.8 1.2-3.6.6-3.6-.2 0-.4.1-.5.2zM893 704.1c0 .5.5.7 1 .4.6-.3 1-.8 1-1.1 0-.2-.4-.4-1-.4-.5 0-1 .5-1 1.1zM907 703.8c0 .5.7.9 1.5.9s1.2-.4.9-.9c-.3-.4-.9-.8-1.5-.8-.5 0-.9.4-.9.8zM1041.5 704.9c-.3.5-.2 1.2.3 1.5.5.3.9-.1.9-.9 0-1.7-.3-1.9-1.2-.6zM148 706c-1.2.7-1 .9.7.7 1.2 0 1.9-.5 1.7-.9-.6-1-.6-1-2.4.2zM153.5 706.1c-.3.4.2.6 1 .5 2.1-.3 2.8-1.3 1-1.3-.9 0-1.8.4-2 .8zM277 706c0 .5.5 1 1.1 1 .5 0 .7-.5.4-1-.3-.6-.8-1-1.1-1-.2 0-.4.4-.4 1zM289.4 706.4c.1.8.5 1.8.8 2.2.4.3.5-.1.4-1-.1-.8-.5-1.8-.8-2.2-.4-.3-.5.1-.4 1zM929.5 706c-.3.6.1.7.9.4 1.8-.7 2.1-1.4.7-1.4-.6 0-1.3.4-1.6 1zM1025.5 706c-.3.5-.1 1 .4 1 .6 0 1.1-.5 1.1-1 0-.6-.2-1-.4-1-.3 0-.8.4-1.1 1zM1029.5 706c.3.5.8 1 1.1 1 .2 0 .4-.5.4-1 0-.6-.5-1-1.1-1-.5 0-.7.4-.4 1zM1033 706c0 .5.5 1 1.1 1 .5 0 .7-.5.4-1-.3-.6-.8-1-1.1-1-.2 0-.4.4-.4 1zM1037.5 706c-.3.5-.1 1 .4 1 .6 0 1.1-.5 1.1-1 0-.6-.2-1-.4-1-.3 0-.8.4-1.1 1zM175.6 707.3c.3 1 .9 1.5 1.2 1.2.3-.3 0-1.1-.7-1.8-1-.9-1.1-.8-.5.6zM165.9 707.2c-.5 1.8-.6 3.8-.1 3.4.7-.8 1.2-3.6.6-3.6-.2 0-.4.1-.5.2zM1015.6 707.8c-.3.5.1.9.9.9s1.2-.4.9-.9c-.3-.4-.7-.8-.9-.8-.2 0-.6.4-.9.8zM911.5 709.1c-.4.6-.5 1.2-.2 1.5.2.3.7-.2 1-1.1.7-1.7.1-2-.8-.4zM185 710.1c0 .5.5.7 1 .4.6-.3 1-.8 1-1.1 0-.2-.4-.4-1-.4-.5 0-1 .5-1 1.1zM189 710.1c0 .5.5.7 1 .4.6-.3 1-.8 1-1.1 0-.2-.4-.4-1-.4-.5 0-1 .5-1 1.1zM277.6 709.8c-.3.5.1.9.9.9s1.2-.4.9-.9c-.3-.4-.7-.8-.9-.8-.2 0-.6.4-.9.8zM285.6 709.8c-.3.5.1.9.9.9s1.2-.4.9-.9c-.3-.4-.7-.8-.9-.8-.2 0-.6.4-.9.8zM918.5 710c-.3.6.1.7.9.4 1.8-.7 2.1-1.4.7-1.4-.6 0-1.3.4-1.6 1zM929 710c0 .5.5 1 1.1 1 .5 0 .7-.5.4-1-.3-.6-.8-1-1.1-1-.2 0-.4.4-.4 1zM1025.6 709.8c-.3.4.4.9 1.5.9 2.3.2 2.5-.3.4-1-.8-.4-1.6-.3-1.9.1zM203.5 710.9c-.3.5-.2 1.2.3 1.5.5.3.9-.1.9-.9 0-1.7-.3-1.9-1.2-.6zM993.5 710.9c-.3.5-.2 1.2.3 1.5.5.3.9-.1.9-.9 0-1.7-.3-1.9-1.2-.6zM1007 710.4c0 .2.8 1 1.8 1.7 1.5 1.3 1.6 1.2.3-.4s-2.1-2.1-2.1-1.3zM935.5 711.9c-.3.5-.2 1.2.3 1.5.5.3.9-.1.9-.9 0-1.7-.3-1.9-1.2-.6zM177.5 714.1c-.3.4.2.6 1 .5 2.1-.3 2.8-1.3 1-1.3-.9 0-1.8.4-2 .8zM233.5 714c.3.5.8 1 1.1 1 .2 0 .4-.5.4-1 0-.6-.5-1-1.1-1-.5 0-.7.4-.4 1zM237.5 714c.3.5.8 1 1.1 1 .2 0 .4-.5.4-1 0-.6-.5-1-1.1-1-.5 0-.7.4-.4 1zM261 714.1c0 .5.5.7 1 .4.6-.3 1-.8 1-1.1 0-.2-.4-.4-1-.4-.5 0-1 .5-1 1.1zM265.5 714c.3.5.8 1 1.1 1 .2 0 .4-.5.4-1 0-.6-.5-1-1.1-1-.5 0-.7.4-.4 1zM275.5 713.9c-.3.5-.2 1.2.3 1.5.5.3.9-.1.9-.9 0-1.7-.3-1.9-1.2-.6zM945 714.1c0 .5.5.7 1 .4.6-.3 1-.8 1-1.1 0-.2-.4-.4-1-.4-.5 0-1 .5-1 1.1zM949 714c0 .5.5 1 1.1 1 .5 0 .7-.5.4-1-.3-.6-.8-1-1.1-1-.2 0-.4.4-.4 1zM957 714.1c0 .5.5.7 1 .4.6-.3 1-.8 1-1.1 0-.2-.4-.4-1-.4-.5 0-1 .5-1 1.1zM997.5 714c.3.5.8 1 1.1 1 .2 0 .4-.5.4-1 0-.6-.5-1-1.1-1-.5 0-.7.4-.4 1zM1013.4 714.4c.1.8.5 1.8.8 2.2.4.3.5-.1.4-1-.1-.8-.5-1.8-.8-2.2-.4-.3-.5.1-.4 1zM270.9 715.7c-1.3 1.6-1.2 1.7.4.4.9-.7 1.7-1.5 1.7-1.7 0-.8-.8-.3-2.1 1.3zM239.6 715.8c-.3.5.1.9.9.9s1.2-.4.9-.9c-.3-.4-.7-.8-.9-.8-.2 0-.6.4-.9.8zM987.5 715.9c-.3.5-.2 1.2.3 1.5.5.3.9-.1.9-.9 0-1.7-.3-1.9-1.2-.6zM196.6 717.8c-.3.5.1.9.9.9s1.2-.4.9-.9c-.3-.4-.7-.8-.9-.8-.2 0-.6.4-.9.8zM205.3 718.5c0 .8.4 1.2.9.9.5-.3.6-1 .3-1.5-.9-1.3-1.2-1.1-1.2.6zM221 718c0 .5.5 1 1.1 1 .5 0 .7-.5.4-1-.3-.6-.8-1-1.1-1-.2 0-.4.4-.4 1zM227.4 717.8c.4.3 1.4.7 2.2.8.9.1 1.3 0 1-.4-.4-.3-1.4-.7-2.2-.8-.9-.1-1.3 0-1 .4zM233.5 718.1c-.3.4.2.6 1 .5 2.1-.3 2.8-1.3 1-1.3-.9 0-1.8.4-2 .8zM243.5 718.1c-.3.4.2.6 1 .5 2.1-.3 2.8-1.3 1-1.3-.9 0-1.8.4-2 .8zM965.5 718.1c-.3.4.2.6 1 .5 2.1-.3 2.8-1.3 1-1.3-.9 0-1.8.4-2 .8zM977.4 717.8c.4.3 1.4.7 2.2.8.9.1 1.3 0 1-.4-.4-.3-1.4-.7-2.2-.8-.9-.1-1.3 0-1 .4zM257 719.4c0 .2.7.7 1.6 1 .8.3 1.2.2.9-.4-.6-1-2.5-1.4-2.5-.6zM1003.6 720.2c.3.5 1 .6 1.5.3 1.3-.9 1.1-1.2-.6-1.2-.8 0-1.2.4-.9.9zM1029.5 719.9c-.3.5-.2 1.2.3 1.5.5.3.9-.1.9-.9 0-1.7-.3-1.9-1.2-.6zM203.5 721.9c-.3.5-.2 1.2.3 1.5.5.3.9-.1.9-.9 0-1.7-.3-1.9-1.2-.6zM995 727.4c0 .2.7.7 1.6 1 .8.3 1.2.2.9-.4-.6-1-2.5-1.4-2.5-.6zM830.7 761.6c-.1.1-4.7.4-10.2.7-42.1 2.4-80.2 17.5-112.7 44.7-31 25.9-53.3 60.2-63.9 98-.7 2.5-1.4 5.2-1.5 6-.1.8-.8 4-1.4 7-.7 3-1.4 6.9-1.6 8.5-.1 1.7-.5 4.4-.9 6-.3 1.7-.8 10.4-1.1 19.5-.3 9-.7 16.6-.9 16.9-.3.2 0 1 .6 1.7.6.8.9 2.7.7 4.4-.3 1.6-.1 3 .4 3s.7.3.4.8c-.2.4.4 5.2 1.4 10.7 1 5.5 1.6 10.3 1.3 10.7-.2.5 0 .8.4.8.5 0 1.4 2.4 2.2 5.2 2.5 9.8 2.5 10.2 1.1 9.3-.9-.5-1.1-.4-.6.4.4.6 1.2.8 1.8.5.7-.5.9.2.4 2.2-.4 1.6-.3 2.4.2 1.7 1-1.5 9.5 19.3 8.6 20.9-.4.6-.2.8.3.5.6-.4 1.9 1 2.8 3.1 1 2 3.6 6.5 5.7 9.9 2.2 3.4 3.7 6.7 3.3 7.3-.3.5 0 1 .7 1 1.8 0 6 6.8 5.2 8.2-.4.6-.3.8.3.5 1.4-.9 7.6 7 6.7 8.5-.4.6-.3.8.4.4.6-.3 2.3 1 3.9 3 1.5 2 4 4.8 5.6 6.2 2.7 2.5 3.8 5 1.5 3.6-.7-.4-.8-.3-.4.5.4.6 1.2.9 1.7.5 1.2-.7 7 4.7 6.3 5.8-.3.5-.1.7.4.6 1.4-.5 9.2 6.3 8.5 7.5-.3.5-.1.7.4.4.6-.4 2.7.6 4.7 2.2s5.9 4.4 8.6 6.1c2.8 1.8 5 3.6 5 4.1 0 .5.3.8.8.7 1.5-.4 5.2 1.4 4.6 2.3-.3.5-.2.8.3.7.9-.3 22.5 10.3 23.4 11.5.3.5 1 .8 1.5.7 1.6-.2 9.4 2.2 9.4 3 0 .4.6.7 1.3.7.6 0 3.1.6 5.5 1.2 2.9.8 4 1.6 3.5 2.4-.4.7 0 .7 1-.2.9-.7 1.7-.9 1.7-.4 0 .6.8 1 1.8 1 3.9 0 5.3.3 4.8 1.2-.3.4.6.6 1.9.3 1.4-.2 2.5 0 2.5.4 0 .5 1.5.9 3.2.8 3.9-.1 6 .5 5.3 1.6-.3.5-.1 1.2.5 1.5.6.4.9.1.8-.7-.2-.7.2-1.2.8-1.1.6.1 4.7.5 9 .9 4.4.3 8.2 1.1 8.6 1.7.4.7.8.7.8.2 0-.6 5.3-1 13.9-1 9 0 13.7.4 13.3 1-.3.5.1.4 1-.3s2-1.2 2.4-1.1c.5.1 1.1.1 1.4 0 .6-.3 4.2-.7 11-1.5 2.5-.3 6.5-1 9-1.5s4.9-.7 5.4-.4c.5.4.6 0 .1-.7-.6-.9-.4-1.2.7-.8.8.4 2.1.2 2.9-.2.8-.5 1.9-.4 2.8.3 1.1.8 1.3.9.8 0-.9-1.4 3.8-3.1 7.8-2.7 2.1.2 2.5 0 1.5-.6-1.1-.7-.7-1 1.6-1.6 1.6-.4 3.4-1 3.9-1.4.6-.4 1.8-.6 2.8-.5.9.2 1.7-.1 1.7-.7s.7-.7 1.6-.4c.8.3 1.2.2.9-.4-.3-.6.1-1 1-1s2.8-.8 4.2-1.8c2.2-1.3 2.6-1.4 1.9-.2-.7 1.3-.6 1.3.6 0 .7-.8 4.2-3 7.8-4.8 3.6-1.8 8.5-4.4 10.9-5.8 3.5-2 4.6-2.3 5.3-1.2.8 1 .9.9.5-.4-.6-1.7 1.5-4.2 2.6-3.1.4.3.7 0 .7-.7s.3-1 .6-.7c.4.4 1.4-.1 2.3-1.1.9-1 3.6-3.3 6.1-5.2 2.5-1.9 4.8-3.9 5.2-4.5.4-.5.8-.6.8-.1s1.3-.4 2.9-2c8.2-8.3 16.6-15.9 17.4-15.6.5.1.6-.2.2-.7-.3-.6 1.1-2.7 3-4.8 2-2.1 5.1-5.7 6.8-8.1 2.1-2.9 3.6-4.1 4.6-3.7 1.2.5 1.3.3.4-.6-.8-.8.3-3.3 4.7-10 3.2-4.9 6.2-9.8 6.5-10.9.4-1.1 1.1-1.7 1.7-1.4.7.4.8.2.4-.4-.8-1.3 2.8-7.5 3.8-6.5.4.4.4 0 0-1-.3-.9-.2-2.3.3-3 3-3.8 11.7-29.5 13.8-40.7.3-1.9 1.1-4 1.7-4.7.6-.8.7-1.3.1-1.3s-.8-1.1-.5-2.5c.2-1.4.7-2.3 1.1-2.1.3.2.7-3.5.9-8.2.1-4.7.7-9.1 1.2-9.7.5-.7.7-1.5.4-1.8-1-1-1.1-5-.2-6.8.4-.9.5-1.9.2-2.2-.3-.3-.7-4.7-.9-9.8-.4-8.7-.8-12.9-2-21.9-4.2-29.7-20.3-66-40.4-91-33.4-41.8-85.1-68.8-138.6-72.6-14.2-1-15.5-1.1-15.8-.8zM341 763.5c-14 2.1-16.1 2.6-25.5 5.1-13.2 3.5-19.6 5.9-33 12.5-16.7 8.2-20.2 10.3-32.9 19.8-12.9 9.7-29.7 26.4-38.1 37.7-9.7 13.1-10.5 14.2-10.5 14.9 0 .3-1.1 2.1-2.3 3.8-6.1 8.3-16.5 32.6-20.6 48.2-2.4 8.8-2.8 10.8-3.7 17.5-.3 2.5-1 6.5-1.4 9-.5 2.4-.6 4.8-.4 5.2.3.5.2.8-.3.8-1 0-.9 30.5.1 38.4.5 3.3 1 7.6 1.1 9.5.2 2 .4 3.6.5 3.6.3 0 1.1 5.6 1.3 8.7.1 1.4.4 2.5.7 2.3 1-.6 4.2 13.4 3.4 14.6-.4.8-.3.9.4.5 1.1-.7 1.6.7 1.5 4.2-.1.6.3 1.2.7 1.2 1 0 4.2 9 3.2 9-.4 0-.2.4.3.8 1.3.9 13 24.4 12.7 25.4-.1.5.2.8.7.8 1.4 0 5.2 7 4.5 8.2-.4.6-.3.8.3.5.6-.4 2.5 1.5 4.4 4.1 1.9 2.6 3.2 4.7 2.9 4.7-.2 0 .7 1.1 2 2.5 3.6 3.8 8.5 9.5 8.3 9.7-.1.1 3.1 3.5 7.2 7.6s7.2 7.7 6.9 8c-.3.3.3.4 1.3.3 1.1 0 1.7.5 1.5 1.4-.2.8 0 1.2.3.8 1.1-1 7.6 4.2 6.8 5.5-.3.6-.1.7.5.3.7-.4 2.4.5 3.9 2.1 1.6 1.5 2.9 2.6 3 2.5.2-.1 1.9.8 3.8 2 2.4 1.4 3.4 2.6 3 3.6-.4 1.1-.2 1.2.7.4 1-.8 2-.6 3.8.8 1.4 1.1 3.1 2 3.8 2 .6 0 1.2.7 1.2 1.6 0 .8.4 1.2 1 .9 1.3-.8 9.2 3.9 8.3 5-.5.4-.2.5.5.1.7-.5 3.6.4 6.7 1.9 6.8 3.3 24.1 9.5 26.6 9.5 1.1 0 1.9.4 1.9.8s1.4.9 3.2 1c1.8.2 3.5.6 3.8 1 .3.4 1.4.7 2.5.7 1.1.1 5.8.7 10.5 1.5 4.7.7 9.1 1.3 9.8 1.3.6 0 1.2.3 1.2.6s7.4.6 16.4.6c9 0 16.2.3 16 .7-.2.4 0 1 .6 1.3.6.4.9.1.8-.6-.2-.9 1.1-1.4 4.3-1.4 2.5-.1 5.1-.5 5.9-1 .9-.6 1.1-.4.5.6-.7 1.1-.6 1.2.6.3.8-.6 2.8-1.1 4.6-1 1.7 0 2.9-.2 2.6-.7-.2-.4.4-.7 1.4-.8 1 0 3.2-.3 4.8-.6 1.7-.3 4.2-.6 5.8-.7 1.5 0 2.7-.4 2.7-.7 0-.4 1.1-.9 2.5-1.1 1.6-.4 2.2-.1 1.8.6-.5.8-.3.8.8 0 2.4-1.8 5.1-2.5 4.4-1.1-.4.6-.1.5.7-.3 1.7-2 12.4-5.3 14-4.4.6.4.8.3.4-.4-.3-.6.4-1.3 1.6-1.7 1.3-.4 4.2-1.5 6.5-2.6 2.4-1 4.7-1.9 5.2-1.9s1.1-.3 1.3-.8c.6-1.3 7.9-4.2 9-3.6.6.4.8.3.5-.3-.7-1.1 4.6-4.4 6.5-4 .7.2.9.2.5-.1-.5-.2 1.7-2.2 5-4.3 5.9-4 8-4.8 6.7-2.7-.4.7-.3.8.4.4.6-.4.8-1.4.5-2.3-.4-1.1-.3-1.4.5-.9.7.4 1.5.1 1.8-.8.3-.9 1.1-1.6 1.8-1.6.6 0 1.7-.9 2.4-2.1.7-1.2 1.6-1.8 1.9-1.5.4.3 1.3-.3 2.1-1.5.8-1.1 2-1.8 2.8-1.5.8.3 1.3.1 1.1-.3-.2-1 13.2-14.6 14.4-14.6.4 0 1.1-.4 1.6-.9.5-.6.2-.6-.7-.1-1.3.8-1.3.6-.1-.8.7-.9 1.8-1.4 2.5-1 .6.3.8.3.4-.2-.6-.6 3.2-6 8.7-12.1.5-.6 1.7-2.2 2.5-3.4.8-1.3 2.3-3.2 3.3-4.2.9-1 1.6-1.9 1.5-2.1-.3-.4 3.6-6.2 5.2-7.5 1.2-1.1 1.2-1.2.1-.6-.9.4-.4-.7.9-2.7 1.3-1.9 2.8-3.6 3.2-3.7.5-.2.5-.9.2-1.4-.4-.6.2-1.7 1.2-2.5s1.7-1.5 1.5-1.6c-.8-.4 1.1-4.7 2.1-4.7.6 0 .9-.2.6-.5-.3-.3 1.1-4.5 3.2-9.3 2.1-4.8 4.1-10.2 4.5-12 .3-1.8 1-3 1.5-2.7.4.3.6-.5.2-1.7-.4-1.6-.2-1.9.8-1.3.8.5 1.1.4.7-.2-.9-1.4.3-7.4 1.3-6.8.5.3.6-.4.3-1.5s0-2.6.6-3.3c.6-.8.8-1.7.4-2-.3-.4-.1-1.3.5-2 .7-.8 1-1.6.7-1.9-.3-.3.1-4 1-8.4 1.4-8 2.4-20.1 2.5-32.9.3-35.6-12.8-77.1-34.2-108.3-13.8-20.1-34.2-39.9-55.3-53.5-7.9-5.1-26.9-14.7-33-16.8-2.2-.7-4.4-1.6-5-2-1-.7-17.2-5.5-21.6-6.5-2.7-.5-14.5-2.9-19.9-3.9-7-1.3-43.3-1.3-52 0zM183.6 1039.8c-.3.5.1.9.9.9s1.2-.4.9-.9c-.3-.4-.7-.8-.9-.8-.2 0-.6.4-.9.8zM1005.5 1051.1c-.4.6-.5 1.2-.2 1.5.2.3.7-.2 1-1.1.7-1.7.1-2-.8-.4zM669 1072.1c0 .5.5.7 1 .4.6-.3 1-.8 1-1.1 0-.2-.4-.4-1-.4-.5 0-1 .5-1 1.1z"/><path d="M673.5 1074c-.3.5-.1 1 .4 1 .6 0 1.1-.5 1.1-1 0-.6-.2-1-.4-1-.3 0-.8.4-1.1 1zM677.5 1078c.3.5.8 1 1.1 1 .2 0 .4-.5.4-1 0-.6-.5-1-1.1-1-.5 0-.7.4-.4 1zM209 1079.4c0 .2.7.7 1.6 1 .8.3 1.2.2.9-.4-.6-1-2.5-1.4-2.5-.6zM675.6 1082.5c-.9 2.6-.7 3.2.5 1.2.6-1 .9-2.1.6-2.3-.2-.3-.7.2-1.1 1.1zM215.5 1088c.3.5.8 1 1.1 1 .2 0 .4-.5.4-1 0-.6-.5-1-1.1-1-.5 0-.7.4-.4 1zM522.6 1088.2c.3.5 1 .6 1.5.3 1.3-.9 1.1-1.2-.6-1.2-.8 0-1.2.4-.9.9zM684.6 1091.8c-.3.5.1.9.9.9s1.2-.4.9-.9c-.3-.4-.7-.8-.9-.8-.2 0-.6.4-.9.8zM507.4 1093.8c.4.3 1.4.7 2.2.8.9.1 1.3 0 1-.4-.4-.3-1.4-.7-2.2-.8-.9-.1-1.3 0-1 .4zM225.5 1096c-.3.5-.1 1 .4 1 .6 0 1.1-.5 1.1-1 0-.6-.2-1-.4-1-.3 0-.8.4-1.1 1zM227 1101.5c0 .7 3 1.3 3.4.7.3-.4-.4-.9-1.5-.9-1-.1-1.9 0-1.9.2zM969.6 1101.8c-.3.5.1.9.9.9s1.2-.4.9-.9c-.3-.4-.7-.8-.9-.8-.2 0-.6.4-.9.8zM965.4 1105.8c.4.3 1.4.7 2.2.8.9.1 1.3 0 1-.4-.4-.3-1.4-.7-2.2-.8-.9-.1-1.3 0-1 .4zM226.5 1108c-.3.6.1.7.9.4 1.8-.7 2.1-1.4.7-1.4-.6 0-1.3.4-1.6 1zM245.5 1114c.3.5.8 1 1.1 1 .2 0 .4-.5.4-1 0-.6-.5-1-1.1-1-.5 0-.7.4-.4 1zM485 1114.1c0 .5.5.7 1 .4.6-.3 1-.8 1-1.1 0-.2-.4-.4-1-.4-.5 0-1 .5-1 1.1zM708.6 1113.8c-.3.5.1.9.9.9s1.2-.4.9-.9c-.3-.4-.7-.8-.9-.8-.2 0-.6.4-.9.8zM949.6 1114.2c.3.5 1 .6 1.5.3 1.3-.9 1.1-1.2-.6-1.2-.8 0-1.2.4-.9.9zM959 1114c0 .5.5 1 1.1 1 .5 0 .7-.5.4-1-.3-.6-.8-1-1.1-1-.2 0-.4.4-.4 1zM949.3 1117.5c0 .8.4 1.2.9.9.5-.3.6-1 .3-1.5-.9-1.3-1.2-1.1-1.2.6zM717.5 1117.9c-.3.5-.2 1.2.3 1.5.5.3.9-.1.9-.9 0-1.7-.3-1.9-1.2-.6zM253.4 1120.4c.1.8.5 1.8.8 2.2.4.3.5-.1.4-1-.1-.8-.5-1.8-.8-2.2-.4-.3-.5.1-.4 1zM473 1122c0 .5.5 1 1.1 1 .5 0 .7-.5.4-1-.3-.6-.8-1-1.1-1-.2 0-.4.4-.4 1zM477.9 1121.2c-.5 1.8-.6 3.8-.1 3.4.7-.8 1.2-3.6.6-3.6-.2 0-.4.1-.5.2zM257.4 1124.4c.1.8.5 1.8.8 2.2.4.3.5-.1.4-1-.1-.8-.5-1.8-.8-2.2-.4-.3-.5.1-.4 1zM933.5 1126c.3.5.8 1 1.1 1 .2 0 .4-.5.4-1 0-.6-.5-1-1.1-1-.5 0-.7.4-.4 1zM936.6 1126.2c.3.5 1 .6 1.5.3 1.3-.9 1.1-1.2-.6-1.2-.8 0-1.2.4-.9.9zM730.6 1127.8c-.3.5.1.9.9.9s1.5-.4 1.5-.9c0-.4-.4-.8-.9-.8-.6 0-1.2.4-1.5.8zM735.3 1128.5c0 .8.4 1.2.9.9.5-.3.6-1 .3-1.5-.9-1.3-1.2-1.1-1.2.6zM467.6 1130.2c.3.4 1.1.5 1.9.1 2.1-.7 1.9-1.2-.4-1-1.1 0-1.8.5-1.5.9zM931.5 1130.1c-.3.4.2.6 1 .5 2.1-.3 2.8-1.3 1-1.3-.9 0-1.8.4-2 .8zM271.5 1131.1c-.4.6-.5 1.2-.2 1.5.2.3.7-.2 1-1.1.7-1.7.1-2-.8-.4zM739.6 1131.8c-.3.5.1.9.9.9s1.2-.4.9-.9c-.3-.4-.7-.8-.9-.8-.2 0-.6.4-.9.8zM925 1134.1c0 .5.5.7 1 .4.6-.3 1-.8 1-1.1 0-.2-.4-.4-1-.4-.5 0-1 .5-1 1.1zM935.5 1134.9c-.3.5-.2 1.2.3 1.5.5.3.9-.1.9-.9 0-1.7-.3-1.9-1.2-.6zM272.9 1136.3c.6.8.7 1.8.3 2.2-.4.5-.1.5.6.1 1-.6 1-1.1.1-2.2-.6-.8-1.4-1.4-1.6-1.4-.3 0 0 .6.6 1.3zM458.1 1136.4c-.9 1.1-.9 1.6.1 2.2.7.4 1 .4.6-.1-.4-.4-.3-1.4.3-2.2.6-.7.9-1.3.6-1.3-.2 0-1 .6-1.6 1.4zM737.5 1136c-.3.5-.1 1 .4 1 .6 0 1.1-.5 1.1-1 0-.6-.2-1-.4-1-.3 0-.8.4-1.1 1zM921.3 1138.5c0 .8.4 1.2.9.9.5-.3.6-1 .3-1.5-.9-1.3-1.2-1.1-1.2.6zM727.3 1139.5c0 .8.4 1.2.9.9.5-.3.6-1 .3-1.5-.9-1.3-1.2-1.1-1.2.6zM447.5 1141c-.4.6-1.1.7-1.7.4-.7-.4-.8-.2-.4.5.6.9 1.1.9 2.2 0 1.4-1.1 1.8-1.9 1-1.9-.3 0-.8.5-1.1 1zM285.4 1142.4c.1.8.5 1.8.8 2.2.4.3.5-.1.4-1-.1-.8-.5-1.8-.8-2.2-.4-.3-.5.1-.4 1zM289.5 1142c-.3.5-.1 1 .4 1 .6 0 1.1-.5 1.1-1 0-.6-.2-1-.4-1-.3 0-.8.4-1.1 1zM437.5 1142c-.3.5-.1 1 .4 1 .6 0 1.1-.5 1.1-1 0-.6-.2-1-.4-1-.3 0-.8.4-1.1 1zM747 1142.1c0 .5.5.7 1 .4.6-.3 1-.8 1-1.1 0-.2-.4-.4-1-.4-.5 0-1 .5-1 1.1zM753.4 1142.4c.1.8.5 1.8.8 2.2.4.3.5-.1.4-1-.1-.8-.5-1.8-.8-2.2-.4-.3-.5.1-.4 1zM905 1142.1c0 .5.5.7 1 .4.6-.3 1-.8 1-1.1 0-.2-.4-.4-1-.4-.5 0-1 .5-1 1.1zM912.6 1142.2c.3.5 1 .6 1.5.3 1.3-.9 1.1-1.2-.6-1.2-.8 0-1.2.4-.9.9zM447.9 1144.7c-1.3 1.6-1.2 1.7.4.4.9-.7 1.7-1.5 1.7-1.7 0-.8-.8-.3-2.1 1.3zM901.4 1144.4c.1.8.5 1.8.8 2.2.4.3.5-.1.4-1-.1-.8-.5-1.8-.8-2.2-.4-.3-.5.1-.4 1zM435.4 1145.8c.4.3 1.4.7 2.2.8.9.1 1.3 0 1-.4-.4-.3-1.4-.7-2.2-.8-.9-.1-1.3 0-1 .4zM759.9 1146.7c-1.2 1.6-1.2 1.7.2.6.9-.7 2-.9 2.4-.5.5.4.5.1.1-.6-.9-1.6-1.1-1.5-2.7.5zM893 1146.1c0 .5.5.7 1 .4.6-.3 1-.8 1-1.1 0-.2-.4-.4-1-.4-.5 0-1 .5-1 1.1zM897.5 1146c-.3.5-.1 1 .4 1 .6 0 1.1-.5 1.1-1 0-.6-.2-1-.4-1-.3 0-.8.4-1.1 1zM905.6 1145.8c-.2.4-.1 1.4.4 2.2.7 1.1.9.9.7-.8-.1-2.4-.3-2.6-1.1-1.4zM315.3 1147.5c0 .8.4 1.2.9.9.5-.3.6-1 .3-1.5-.9-1.3-1.2-1.1-1.2.6zM783.3 1147.5c0 .8.4 1.2.9.9.5-.3.6-1 .3-1.5-.9-1.3-1.2-1.1-1.2.6zM297.5 1148c-.3.5-.1 1 .4 1 .6 0 1.1-.5 1.1-1 0-.6-.2-1-.4-1-.3 0-.8.4-1.1 1zM305.3 1148.9c0 1.1.5 1.8.9 1.5.4-.3.5-1.1.1-1.9-.7-2.1-1.2-1.9-1 .4zM414 1147.4c0 .2.8 1 1.8 1.7 1.5 1.3 1.6 1.2.3-.4s-2.1-2.1-2.1-1.3zM765 1148c0 .5.5 1 1.1 1 .5 0 .7-.5.4-1-.3-.6-.8-1-1.1-1-.2 0-.4.4-.4 1zM779.6 1148.2c.3.5 1 .6 1.5.3 1.3-.9 1.1-1.2-.6-1.2-.8 0-1.2.4-.9.9zM919.6 1148.2c.3.5 1 .6 1.5.3 1.3-.9 1.1-1.2-.6-1.2-.8 0-1.2.4-.9.9zM329 1150.1c0 .5.5.7 1 .4.6-.3 1-.8 1-1.1 0-.2-.4-.4-1-.4-.5 0-1 .5-1 1.1zM423.5 1150.1c-.3.4.2.6 1 .5 2.1-.3 2.8-1.3 1-1.3-.9 0-1.8.4-2 .8zM433.3 1151.1c-.2 2.3.3 2.5 1 .4.4-.8.3-1.6-.1-1.9-.4-.3-.9.4-.9 1.5zM771.5 1150.1c-.3.4.2.6 1 .5 2.1-.3 2.8-1.3 1-1.3-.9 0-1.8.4-2 .8zM891.4 1149.8c.4.3 1.4.7 2.2.8.9.1 1.3 0 1-.4-.4-.3-1.4-.7-2.2-.8-.9-.1-1.3 0-1 .4zM795 1152c0 .5.5 1 1.1 1 .5 0 .7-.5.4-1-.3-.6-.8-1-1.1-1-.2 0-.4.4-.4 1zM911.6 1152.7c-.6 1.4-.5 1.5.5.6.7-.7 1-1.5.7-1.8-.3-.3-.9.2-1.2 1.2zM321.9 1153.2c-.5 1.8-.6 3.8-.1 3.4.7-.8 1.2-3.6.6-3.6-.2 0-.4.1-.5.2zM361.5 1154c-.3.5-.1 1 .4 1 .6 0 1.1-.5 1.1-1 0-.6-.2-1-.4-1-.3 0-.8.4-1.1 1zM365.5 1154c-.3.5-.1 1 .4 1 .6 0 1.1-.5 1.1-1 0-.6-.2-1-.4-1-.3 0-.8.4-1.1 1zM411.4 1153.8c.4.3 1.4.7 2.2.8.9.1 1.3 0 1-.4-.4-.3-1.4-.7-2.2-.8-.9-.1-1.3 0-1 .4zM785.4 1153.8c.4.3 1.4.7 2.2.8.9.1 1.3 0 1-.4-.4-.3-1.4-.7-2.2-.8-.9-.1-1.3 0-1 .4zM849.5 1154c.3.5.8 1 1.1 1 .2 0 .4-.5.4-1 0-.6-.5-1-1.1-1-.5 0-.7.4-.4 1zM881.4 1153.8c.4.3 1.4.7 2.2.8.9.1 1.3 0 1-.4-.4-.3-1.4-.7-2.2-.8-.9-.1-1.3 0-1 .4zM887.5 1154c-.3.5-.1 1 .4 1 .6 0 1.1-.5 1.1-1 0-.6-.2-1-.4-1-.3 0-.8.4-1.1 1zM313.5 1156c.3.5.8 1 1.1 1 .2 0 .4-.5.4-1 0-.6-.5-1-1.1-1-.5 0-.7.4-.4 1zM799.6 1155.8c-.3.5.1.9.9.9s1.2-.4.9-.9c-.3-.4-.7-.8-.9-.8-.2 0-.6.4-.9.8zM817.4 1156.4c.1.8.5 1.8.8 2.2.4.3.5-.1.4-1-.1-.8-.5-1.8-.8-2.2-.4-.3-.5.1-.4 1zM826.6 1156.2c.3.5 1 .6 1.5.3 1.3-.9 1.1-1.2-.6-1.2-.8 0-1.2.4-.9.9zM869.9 1155.2c-.5 1.8-.6 3.8-.1 3.4.7-.8 1.2-3.6.6-3.6-.2 0-.4.1-.5.2zM875 1155.9c0 .6.4 1.3 1 1.6.6.3.7-.1.4-.9-.7-1.8-1.4-2.1-1.4-.7zM335 1156.3c0 .2.6 1 1.4 1.6 1.1.9 1.6.9 2.2-.1.4-.7.4-1-.1-.6-.4.4-1.4.3-2.2-.3-.7-.6-1.3-.9-1.3-.6zM349.5 1158c.3.5.8 1 1.1 1 .2 0 .4-.5.4-1 0-.6-.5-1-1.1-1-.5 0-.7.4-.4 1zM361 1158c0 .5.5 1 1.1 1 .5 0 .7-.5.4-1-.3-.6-.8-1-1.1-1-.2 0-.4.4-.4 1zM365.6 1157.8c-.3.4.4.9 1.5.9 2.3.2 2.5-.3.4-1-.8-.4-1.6-.3-1.9.1zM373.5 1158c.3.5.8 1 1.1 1 .2 0 .4-.5.4-1 0-.6-.5-1-1.1-1-.5 0-.7.4-.4 1zM397.5 1157.9c-.3.5-.2 1.2.3 1.5.5.3.9-.1.9-.9 0-1.7-.3-1.9-1.2-.6zM803.5 1158.1c-.3.4.2.6 1 .5 2.1-.3 2.8-1.3 1-1.3-.9 0-1.8.4-2 .8zM845 1158.1c0 .5.5.7 1 .4.6-.3 1-.8 1-1.1 0-.2-.4-.4-1-.4-.5 0-1 .5-1 1.1zM857.5 1158.1c-.3.4.2.6 1 .5 2.1-.3 2.8-1.3 1-1.3-.9 0-1.8.4-2 .8zM435.5 1160c-.3.5-.1 1 .4 1 .6 0 1.1-.5 1.1-1 0-.6-.2-1-.4-1-.3 0-.8.4-1.1 1zM789 1160.1c0 .5.5.7 1 .4.6-.3 1-.8 1-1.1 0-.2-.4-.4-1-.4-.5 0-1 .5-1 1.1zM798.6 1160.2c.3.5 1 .6 1.5.3 1.3-.9 1.1-1.2-.6-1.2-.8 0-1.2.4-.9.9zM822.7 1160.1c.7.7 1.5 1 1.8.7.3-.3-.2-.9-1.2-1.2-1.4-.6-1.5-.5-.6.5zM840 1160c-.9.6-1 1-.3 1 .6 0 1.5-.5 1.8-1 .8-1.2.4-1.2-1.5 0zM888 1160c-.9.6-1 1-.3 1 .6 0 1.5-.5 1.8-1 .8-1.2.4-1.2-1.5 0zM371.5 1162c-.3.5-.1 1 .4 1 .6 0 1.1-.5 1.1-1 0-.6-.2-1-.4-1-.3 0-.8.4-1.1 1zM845.5 1161.9c-.3.5-.2 1.2.3 1.5.5.3.9-.1.9-.9 0-1.7-.3-1.9-1.2-.6zM331.5 1163.9c-.3.5-.2 1.2.3 1.5.5.3.9-.1.9-.9 0-1.7-.3-1.9-1.2-.6zM825.9 1168.7c-1.3 1.6-1.2 1.7.4.4.9-.7 1.7-1.5 1.7-1.7 0-.8-.8-.3-2.1 1.3z"/></svg>